<?xml version="1.0" standalone="no"?>
<!DOCTYPE svg PUBLIC "-//W3C//DTD SVG 20010904//EN"
 "http://www.w3.org/TR/2001/REC-SVG-20010904/DTD/svg10.dtd">
<svg version="1.0" xmlns="http://www.w3.org/2000/svg"
 width="512.000000pt" height="512.000000pt" viewBox="0 0 512.000000 512.000000"
 preserveAspectRatio="xMidYMid meet">
<metadata>
Created by potrace 1.14, written by Peter Selinger 2001-2017
</metadata>
<g transform="translate(0.000000,512.000000) scale(0.100000,-0.100000)"
fill="#000000" stroke="none">
<path d="M990 3743 c-195 -6 -373 -22 -382 -35 -14 -22 -9 -57 10 -66 9 -5 46
-13 82 -16 131 -15 157 -47 171 -210 11 -131 11 -1491 0 -1622 -11 -125 -28
-166 -84 -193 -31 -15 -160 -41 -202 -41 -7 0 -13 -42 -8 -59 5 -19 18 -20
433 -20 l428 0 4 22 c8 47 0 55 -70 67 -147 25 -182 49 -201 140 -7 31 -11
189 -11 410 0 356 0 359 21 371 14 7 63 10 138 7 101 -3 122 -6 160 -28 45
-26 57 -42 355 -499 193 -295 329 -425 513 -487 63 -22 102 -28 203 -31 150
-5 204 3 208 34 3 18 -3 23 -35 28 -75 13 -134 37 -190 79 -85 63 -228 216
-325 347 -162 218 -399 589 -401 627 -2 20 9 30 62 59 180 96 296 227 345 393
21 71 22 225 1 304 -36 137 -132 252 -271 324 -177 91 -387 112 -954 95z m548
-118 c185 -44 319 -175 367 -360 19 -76 19 -240 0 -323 -41 -173 -153 -285
-323 -321 -67 -14 -376 -15 -403 -1 -18 10 -19 26 -19 494 0 447 1 484 18 498
9 9 24 18 32 21 33 12 267 6 328 -8z"/>
<path d="M3080 3739 c-236 -10 -278 -16 -291 -40 -14 -27 -2 -58 24 -63 12 -3
50 -7 84 -10 96 -9 130 -27 156 -83 l22 -48 3 -818 c3 -826 -1 -966 -33 -1026
-17 -35 -70 -65 -130 -75 -100 -17 -96 -14 -93 -54 l3 -37 480 -3 c295 -1 512
2 562 8 183 24 339 82 458 173 141 107 217 269 218 467 1 115 -14 182 -61 279
-66 136 -198 243 -355 288 -122 35 -124 45 -20 107 184 110 262 234 263 418 1
252 -146 423 -420 487 -168 40 -434 49 -870 30z m655 -119 c216 -55 335 -211
335 -437 0 -298 -166 -429 -556 -436 -90 -1 -125 1 -137 12 -15 12 -17 53 -17
421 0 386 1 408 19 424 29 27 68 34 177 35 71 1 124 -5 179 -19z m75 -1005
c215 -57 353 -189 405 -390 23 -89 21 -254 -4 -336 -39 -125 -130 -218 -262
-267 -77 -28 -208 -46 -293 -39 -179 15 -258 86 -285 257 -6 36 -11 219 -11
411 0 317 1 347 18 361 27 25 47 27 212 24 105 -3 176 -9 220 -21z"/>
</g>
</svg>
